<mxfile host="app.diagrams.net" modified="2024-05-13T17:24:25.587Z" agent="Mozilla/5.0 (Windows NT 10.0; Win64; x64) AppleWebKit/537.36 (KHTML, like Gecko) Chrome/121.0.0.0 Safari/537.36 OPR/107.0.0.0" etag="jqu38niJbW3W0rXd29XJ" version="24.3.1" type="device">
  <diagram name="Page-1" id="o5CqJKCKYeGtj13cdCVm">
    <mxGraphModel dx="1393" dy="758" grid="0" gridSize="10" guides="1" tooltips="1" connect="1" arrows="1" fold="1" page="1" pageScale="1" pageWidth="827" pageHeight="1169" math="0" shadow="0">
      <root>
        <mxCell id="0" />
        <mxCell id="1" parent="0" />
        <mxCell id="2UN21SvdUbJ2DerVQKFh-8" value="" style="rounded=0;whiteSpace=wrap;html=1;" vertex="1" parent="1">
          <mxGeometry x="125" y="230" width="305" height="60" as="geometry" />
        </mxCell>
        <mxCell id="2UN21SvdUbJ2DerVQKFh-2" value="&lt;h3&gt;&lt;font face=&quot;Georgia&quot;&gt;Encoded&lt;br&gt;Password&lt;/font&gt;&lt;/h3&gt;" style="rounded=0;whiteSpace=wrap;html=1;" vertex="1" parent="1">
          <mxGeometry x="680" y="240" width="110" height="40" as="geometry" />
        </mxCell>
        <mxCell id="2UN21SvdUbJ2DerVQKFh-4" value="&lt;h3&gt;&lt;font face=&quot;Georgia&quot;&gt;Salt&lt;/font&gt;&lt;/h3&gt;" style="rounded=0;whiteSpace=wrap;html=1;" vertex="1" parent="1">
          <mxGeometry x="280" y="240" width="40" height="40" as="geometry" />
        </mxCell>
        <mxCell id="2UN21SvdUbJ2DerVQKFh-1" value="&lt;h3&gt;&lt;font face=&quot;Georgia&quot;&gt;Password&lt;/font&gt;&lt;/h3&gt;" style="rounded=0;whiteSpace=wrap;html=1;" vertex="1" parent="1">
          <mxGeometry x="130" y="240" width="110" height="40" as="geometry" />
        </mxCell>
        <mxCell id="2UN21SvdUbJ2DerVQKFh-5" value="&lt;h3&gt;&lt;font face=&quot;Georgia&quot;&gt;Pepper&lt;/font&gt;&lt;/h3&gt;" style="rounded=0;whiteSpace=wrap;html=1;" vertex="1" parent="1">
          <mxGeometry x="360" y="240" width="60" height="40" as="geometry" />
        </mxCell>
        <mxCell id="2UN21SvdUbJ2DerVQKFh-6" value="&lt;b&gt;&lt;font style=&quot;font-size: 17px;&quot;&gt;+&lt;/font&gt;&lt;/b&gt;" style="text;html=1;align=center;verticalAlign=middle;whiteSpace=wrap;rounded=0;" vertex="1" parent="1">
          <mxGeometry x="230" y="245" width="60" height="30" as="geometry" />
        </mxCell>
        <mxCell id="2UN21SvdUbJ2DerVQKFh-7" value="&lt;b&gt;&lt;font style=&quot;font-size: 17px;&quot;&gt;+&lt;/font&gt;&lt;/b&gt;" style="text;html=1;align=center;verticalAlign=middle;whiteSpace=wrap;rounded=0;" vertex="1" parent="1">
          <mxGeometry x="310" y="245" width="60" height="30" as="geometry" />
        </mxCell>
        <mxCell id="2UN21SvdUbJ2DerVQKFh-9" value="&lt;font style=&quot;font-size: 14px;&quot; face=&quot;Georgia&quot;&gt;Randomly generated&lt;/font&gt;" style="text;html=1;align=center;verticalAlign=middle;whiteSpace=wrap;rounded=0;fontSize=14;" vertex="1" parent="1">
          <mxGeometry x="360" y="390" width="90" height="30" as="geometry" />
        </mxCell>
        <mxCell id="2UN21SvdUbJ2DerVQKFh-10" value="&lt;font style=&quot;font-size: 14px;&quot; face=&quot;Georgia&quot;&gt;Reusable fixed value&lt;/font&gt;" style="text;html=1;align=center;verticalAlign=middle;whiteSpace=wrap;rounded=0;fontSize=14;" vertex="1" parent="1">
          <mxGeometry x="450" y="340" width="100" height="30" as="geometry" />
        </mxCell>
        <mxCell id="2UN21SvdUbJ2DerVQKFh-11" value="" style="endArrow=classic;html=1;rounded=0;exitX=0.5;exitY=1;exitDx=0;exitDy=0;" edge="1" parent="1" source="2UN21SvdUbJ2DerVQKFh-4">
          <mxGeometry width="50" height="50" relative="1" as="geometry">
            <mxPoint x="390" y="410" as="sourcePoint" />
            <mxPoint x="360" y="400" as="targetPoint" />
            <Array as="points">
              <mxPoint x="300" y="400" />
            </Array>
          </mxGeometry>
        </mxCell>
        <mxCell id="2UN21SvdUbJ2DerVQKFh-12" value="" style="endArrow=classic;html=1;rounded=0;" edge="1" parent="1">
          <mxGeometry width="50" height="50" relative="1" as="geometry">
            <mxPoint x="390" y="280" as="sourcePoint" />
            <mxPoint x="450" y="350" as="targetPoint" />
            <Array as="points">
              <mxPoint x="390" y="350" />
            </Array>
          </mxGeometry>
        </mxCell>
        <mxCell id="2UN21SvdUbJ2DerVQKFh-13" value="&lt;h3&gt;&lt;b&gt;SHA256&lt;br&gt;&lt;/b&gt;&lt;b&gt;hash&lt;/b&gt;&lt;/h3&gt;" style="shape=step;perimeter=stepPerimeter;whiteSpace=wrap;html=1;fixedSize=1;" vertex="1" parent="1">
          <mxGeometry x="490" y="220" width="120" height="80" as="geometry" />
        </mxCell>
        <mxCell id="2UN21SvdUbJ2DerVQKFh-14" value="" style="shape=flexArrow;endArrow=classic;html=1;rounded=0;entryX=0;entryY=0.5;entryDx=0;entryDy=0;exitX=1;exitY=0.5;exitDx=0;exitDy=0;" edge="1" parent="1" source="2UN21SvdUbJ2DerVQKFh-8" target="2UN21SvdUbJ2DerVQKFh-13">
          <mxGeometry width="50" height="50" relative="1" as="geometry">
            <mxPoint x="490" y="490" as="sourcePoint" />
            <mxPoint x="540" y="440" as="targetPoint" />
          </mxGeometry>
        </mxCell>
        <mxCell id="2UN21SvdUbJ2DerVQKFh-15" value="" style="shape=flexArrow;endArrow=classic;html=1;rounded=0;entryX=0;entryY=0.5;entryDx=0;entryDy=0;exitX=1;exitY=0.5;exitDx=0;exitDy=0;" edge="1" parent="1" source="2UN21SvdUbJ2DerVQKFh-13" target="2UN21SvdUbJ2DerVQKFh-2">
          <mxGeometry width="50" height="50" relative="1" as="geometry">
            <mxPoint x="560" y="450" as="sourcePoint" />
            <mxPoint x="610" y="400" as="targetPoint" />
          </mxGeometry>
        </mxCell>
      </root>
    </mxGraphModel>
  </diagram>
</mxfile>
